<?xml version="1.0" encoding="UTF-8" standalone="no"?>
<!-- Created with Inkscape (http://www.inkscape.org/) -->

<svg
   xmlns:dc="http://purl.org/dc/elements/1.1/"
   xmlns:cc="http://creativecommons.org/ns#"
   xmlns:rdf="http://www.w3.org/1999/02/22-rdf-syntax-ns#"
   xmlns:svg="http://www.w3.org/2000/svg"
   xmlns="http://www.w3.org/2000/svg"
   version="1.1"
   width="64"
   height="64"
   id="svg5222">
  <defs
     id="defs5224" />
  <metadata
     id="metadata5227">
    <rdf:RDF>
      <cc:Work
         rdf:about="">
        <dc:format>image/svg+xml</dc:format>
        <dc:type
           rdf:resource="http://purl.org/dc/dcmitype/StillImage" />
        <dc:title></dc:title>
      </cc:Work>
    </rdf:RDF>
  </metadata>
  <g
     id="layer1">
    <g
       transform="matrix(0.74156994,0,0,0.93065708,-628.95195,-96.938812)"
       id="g5071">
      <g
         transform="matrix(0.99765918,0,0,1.1781926,23.680792,-6.8804413)"
         id="g5375">
        <path
           d="m 834.28764,114.1162 -1.41153,0 -1.51235,0.80658 -1.41152,1.51235 -1.41153,0.80659 -0.70576,1.51235 c -2.54411,3.38934 0.0218,8.4742 3.52881,9.98151"
           id="path3644"
           style="fill:none;stroke:#000000;stroke-width:0.59538394;stroke-linecap:round;stroke-linejoin:round;stroke-miterlimit:10;stroke-opacity:1;stroke-dasharray:none" />
        <path
           d="m 831.36376,128.73558 -1.41152,0.70576 -0.70577,1.61317 -0.70576,1.51235 0,3.0247 0.70576,2.31894 c 1.88036,2.83985 5.29659,4.32868 8.67081,3.83128 l 0,-0.80659 -6.55352,-12.19961"
           id="path3646"
           style="fill:#e1ffe1;fill-opacity:1;fill-rule:evenodd;stroke:none" />
        <path
           d="m 831.36376,128.73558 -1.41152,0.70576 -0.70577,1.61317 -0.70576,1.51235 0,3.0247 0.70576,2.31894 c 1.88036,2.83985 5.29659,4.32868 8.67081,3.83128 l 0,-0.80659 m 0,0 0,0.80659"
           id="path3648"
           style="fill:none;stroke:#000000;stroke-width:0.59538394;stroke-linecap:round;stroke-linejoin:round;stroke-miterlimit:10;stroke-opacity:1;stroke-dasharray:none" />
        <path
           d="m 837.91728,141.74178 1.41152,2.31894 2.11729,1.51235 2.21811,0.80658 2.11729,1.51235 2.92388,0 5.04116,0.80659 1.41153,-0.80659 2.21811,-0.80659 2.11729,-0.70576 -21.57618,-4.63787"
           id="path3650"
           style="fill:#e1ffe1;fill-opacity:1;fill-rule:evenodd;stroke:none" />
        <path
           d="m 837.91728,141.74178 1.41152,2.31894 2.11729,1.51235 2.21811,0.80658 2.11729,1.51235 2.92388,0 5.04116,0.80659 1.41153,-0.80659 2.21811,-0.80659 2.11729,-0.70576"
           id="path3652"
           style="fill:none;stroke:#000000;stroke-width:0.59538394;stroke-linecap:round;stroke-linejoin:round;stroke-miterlimit:10;stroke-opacity:1;stroke-dasharray:none" />
        <path
           d="m 859.49346,146.37965 c 6.33507,6.44933 4.93698,5.29322 13.71197,5.34364 5.31003,-1.54596 8.58342,-3.31877 10.08233,-9.17492 l -23.7943,3.83128"
           id="path3654"
           style="fill:#e1ffe1;fill-opacity:1;fill-rule:evenodd;stroke:none" />
        <path
           d="m 859.49346,146.37965 c 6.33507,6.44933 4.93698,5.29322 13.71197,5.34364 5.31003,-1.54596 8.58342,-3.31877 10.08233,-9.17492 m 0,0 0,1.51235"
           id="path3656"
           style="fill:none;stroke:#000000;stroke-width:0.59538394;stroke-linecap:round;stroke-linejoin:round;stroke-miterlimit:10;stroke-opacity:1;stroke-dasharray:none" />
        <path
           d="m 883.28776,144.06072 1.51235,0.80658 7.15845,0 2.21811,-0.80658 2.11729,-1.51235 1.41153,-1.61318 1.51235,-1.51235 0.70576,-2.31893 0.70576,-2.21811 -17.3416,9.17492"
           id="path3658"
           style="fill:#e1ffe1;fill-opacity:1;fill-rule:evenodd;stroke:none" />
        <path
           d="m 883.28776,144.06072 1.51235,0.80658 7.15845,0 2.21811,-0.80658 2.11729,-1.51235 1.41153,-1.61318 1.51235,-1.51235 0.70576,-2.31893 0.70576,-2.21811"
           id="path3660"
           style="fill:none;stroke:#000000;stroke-width:0.59538394;stroke-linecap:round;stroke-linejoin:round;stroke-miterlimit:10;stroke-opacity:1;stroke-dasharray:none" />
        <path
           d="m 900.62936,134.8858 2.21812,-0.80659 2.82305,-0.80659 2.21811,-1.51235 2.11729,-2.31893 0.70576,-2.21811 1.51235,-2.31894 0,-5.34363 -0.80658,-1.61318 -1.41153,-0.70576 -1.41153,-1.51235 -7.96504,19.15643"
           id="path3662"
           style="fill:#e1ffe1;fill-opacity:1;fill-rule:evenodd;stroke:none" />
        <path
           d="m 900.62936,134.8858 2.21812,-0.80659 2.82305,-0.80659 2.21811,-1.51235 2.11729,-2.31893 0.70576,-2.21811 1.51235,-2.31894 0,-5.34363 -0.80658,-1.61318 -1.41153,-0.70576 -1.41153,-1.51235"
           id="path3664"
           style="fill:none;stroke:#000000;stroke-width:0.59538394;stroke-linecap:round;stroke-linejoin:round;stroke-miterlimit:10;stroke-opacity:1;stroke-dasharray:none" />
        <path
           d="m 908.5944,115.72937 0.70577,-0.80659 0,-6.9568 -0.70577,-1.51235 -1.51234,-1.51235 -1.41153,-1.51235 -1.41153,-0.80659 -2.21811,-0.70576 6.55351,13.81279"
           id="path3666"
           style="fill:#e1ffe1;fill-opacity:1;fill-rule:evenodd;stroke:none" />
        <path
           d="m 908.5944,115.72937 0.70577,-0.80659 0,-6.9568 -0.70577,-1.51235 -1.51234,-1.51235 -1.41153,-1.51235 -1.41153,-0.80659 -2.21811,-0.70576"
           id="path3668"
           style="fill:none;stroke:#000000;stroke-width:0.59538394;stroke-linecap:round;stroke-linejoin:round;stroke-miterlimit:10;stroke-opacity:1;stroke-dasharray:none" />
        <path
           d="m 902.04089,101.91658 c -2.45841,-4.72021 -0.65367,-4.71181 -5.74693,-6.15022 l -1.41152,-0.80659 -3.62964,0 -1.41153,0.80659 -1.51235,0.70576 -2.82305,1.61317 16.53502,3.83129"
           id="path3670"
           style="fill:#e1ffe1;fill-opacity:1;fill-rule:evenodd;stroke:none" />
        <path
           d="m 902.04089,101.91658 c -2.45841,-4.72021 -0.65367,-4.71181 -5.74693,-6.15022 l -1.41152,-0.80659 -3.62964,0 -1.41153,0.80659 -1.51235,0.70576 -2.82305,1.61317"
           id="path3672"
           style="fill:none;stroke:#000000;stroke-width:0.59538394;stroke-linecap:round;stroke-linejoin:round;stroke-miterlimit:10;stroke-opacity:1;stroke-dasharray:none" />
        <path
           d="m 885.50587,98.08529 -0.70576,-0.80658 -1.51235,-0.80659 -1.41153,-0.70576 -1.41152,-0.80659 -5.04117,0 -1.51235,0.80659 -0.70576,1.51235 -1.41153,0.80658 -0.70576,1.51235"
           id="path3674"
           style="fill:#e1ffff;fill-opacity:1;fill-rule:evenodd;stroke:none" />
        <path
           d="m 885.50587,98.08529 -0.70576,-0.80658 -1.51235,-0.80659 -1.41153,-0.70576 -1.41152,-0.80659 -5.04117,0 -1.51235,0.80659 -0.70576,1.51235 -1.41153,0.80658 -0.70576,1.51235"
           id="path3676"
           style="fill:none;stroke:#000000;stroke-width:0.59538394;stroke-linecap:round;stroke-linejoin:round;stroke-miterlimit:10;stroke-opacity:1;stroke-dasharray:none" />
        <path
           d="m 871.08814,99.59764 c -4.27323,-5.08166 -14.08333,-3.86825 -16.63584,2.31894"
           id="path3680"
           style="fill:none;stroke:#000000;stroke-width:0.59538394;stroke-linecap:round;stroke-linejoin:round;stroke-miterlimit:10;stroke-opacity:1;stroke-dasharray:none" />
        <path
           d="m 854.4523,101.91658 -1.41153,-0.80659 -2.21811,0 -1.41153,-0.80658 -4.3354,0 -2.82305,0.80658 -2.21811,1.51235 c -4.19929,1.53924 -5.73181,7.66913 -5.74693,11.49386"
           id="path3684"
           style="fill:none;stroke:#000000;stroke-width:0.59538394;stroke-linecap:round;stroke-linejoin:round;stroke-miterlimit:10;stroke-opacity:1;stroke-dasharray:none" />
        <path
           d="m 830.658,128.73558 0.70576,0 0.70577,0.70576 4.3354,0 -5.74693,-0.70576"
           id="path3686"
           style="fill:#e1ffe1;fill-opacity:1;fill-rule:evenodd;stroke:none" />
        <path
           d="m 830.658,128.73558 0.70576,0 0.70577,0.70576 4.3354,0 m 1.51235,11.49385 2.82305,0"
           id="path3688"
           style="fill:none;stroke:#000000;stroke-width:0.59538394;stroke-linecap:round;stroke-linejoin:round;stroke-miterlimit:10;stroke-opacity:1;stroke-dasharray:none" />
        <path
           d="m 857.37617,144.8673 0.70577,0 0.70576,0.70577 0,0.80658 0.70576,0 -2.11729,-1.51235"
           id="path3690"
           style="fill:#e1ffe1;fill-opacity:1;fill-rule:evenodd;stroke:none" />
        <path
           d="m 857.37617,144.8673 0.70577,0 0.70576,0.70577 0,0.80658 0.70576,0 m 23.7943,-3.83128 0,-1.61318"
           id="path3692"
           style="fill:none;stroke:#000000;stroke-width:0.59538394;stroke-linecap:round;stroke-linejoin:round;stroke-miterlimit:10;stroke-opacity:1;stroke-dasharray:none" />
        <path
           d="m 900.62936,134.8858 -0.70576,-1.61318 0,-2.21811 -1.41152,-1.61317 -0.80659,-1.51235 -1.41153,-1.51235 -2.11729,-0.80659 6.45269,9.27575"
           id="path3694"
           style="fill:#e1ffe1;fill-opacity:1;fill-rule:evenodd;stroke:none" />
        <path
           d="m 900.62936,134.8858 -0.70576,-1.61318 0,-2.21811 -1.41152,-1.61317 -0.80659,-1.51235 -1.41153,-1.51235 -2.11729,-0.80659"
           id="path3696"
           style="fill:none;stroke:#000000;stroke-width:0.59538394;stroke-linecap:round;stroke-linejoin:round;stroke-miterlimit:10;stroke-opacity:1;stroke-dasharray:none" />
        <path
           d="m 906.37629,117.94748 0.70577,0 0.80658,-0.70576 0.70576,-0.80659 0,-0.70576 -2.21811,2.21811"
           id="path3698"
           style="fill:#e1ffe1;fill-opacity:1;fill-rule:evenodd;stroke:none" />
        <path
           d="m 906.37629,117.94748 0.70577,0 0.80658,-0.70576 0.70576,-0.80659 0,-0.70576 m -6.55351,-11.59468 0,-2.21811"
           id="path3700"
           style="fill:none;stroke:#000000;stroke-width:0.59538394;stroke-linecap:round;stroke-linejoin:round;stroke-miterlimit:10;stroke-opacity:1;stroke-dasharray:none" />
        <path
           d="m 885.50587,98.08529 0,0.70577 -0.70576,0 -0.70577,0.80658 0,0.70577 1.41153,-2.21812"
           id="path3702"
           style="fill:#e1ffe1;fill-opacity:1;fill-rule:evenodd;stroke:none" />
        <path
           d="m 885.50587,98.08529 0,0.70577 -0.70576,0 -0.70577,0.80658 0,0.70577"
           id="path3704"
           style="fill:none;stroke:#000000;stroke-width:0.59538394;stroke-linecap:round;stroke-linejoin:round;stroke-miterlimit:10;stroke-opacity:1;stroke-dasharray:none" />
        <path
           d="m 871.08814,99.59764 -0.70576,0.70577 0,0.80658 0.70576,-1.51235"
           id="path3706"
           style="fill:#e1ffe1;fill-opacity:1;fill-rule:evenodd;stroke:none" />
        <path
           d="m 871.08814,99.59764 -0.70576,0.70577 0,0.80658"
           id="path3708"
           style="fill:none;stroke:#000000;stroke-width:0.59538394;stroke-linecap:round;stroke-linejoin:round;stroke-miterlimit:10;stroke-opacity:1;stroke-dasharray:none" />
        <path
           d="m 856.67041,104.13469 -2.21811,-2.21811 2.21811,2.21811"
           id="path3710"
           style="fill:#e1ffe1;fill-opacity:1;fill-rule:evenodd;stroke:none" />
        <path
           d="m 856.67041,104.13469 -2.21811,-2.21811 m -20.16466,12.19962 0,1.61317"
           id="path3712"
           style="fill:none;stroke:#000000;stroke-width:0.59538394;stroke-linecap:round;stroke-linejoin:round;stroke-miterlimit:10;stroke-opacity:1;stroke-dasharray:none" />
        <path
           d="m 834.28764,114.1162 -1.41153,0 -1.51235,0.80658 -1.41152,1.51235 -1.41153,0.80659 -0.70576,1.51235 c -2.54411,3.38934 0.0218,8.4742 3.52881,9.98151 l 2.92388,-14.61938"
           id="path3714"
           style="fill:#fefffc;fill-opacity:1;fill-rule:evenodd;stroke:none" />
        <path
           d="m 834.28764,114.1162 -1.41153,0 -1.51235,0.80658 -1.41152,1.51235 -1.41153,0.80659 -0.70576,1.51235 c -2.54411,3.38934 0.0218,8.4742 3.52881,9.98151"
           id="path3716"
           style="fill:none;stroke:#000000;stroke-width:0.59538394;stroke-linecap:round;stroke-linejoin:round;stroke-miterlimit:10;stroke-opacity:1;stroke-dasharray:none" />
        <path
           d="m 831.9687,128.73558 -1.71399,0.70576 -0.90741,1.61317 -0.80659,1.51235 0,3.0247 0.80659,2.31894 c 2.75247,3.0667 6.29137,4.25138 10.3848,3.83128 l 0,-0.80659 -7.7634,-12.19961"
           id="path3718"
           style="fill:#fffff4;fill-opacity:1;fill-rule:nonzero;stroke:none" />
        <path
           d="m 831.36376,128.73558 -1.41152,0.70576 -0.70577,1.61317 -0.70576,1.51235 0,3.0247 0.70576,2.31894 c 1.88036,2.83985 5.29659,4.32868 8.67081,3.83128 l 0,-0.80659 m 0,0 0,0.80659"
           id="path3720"
           style="fill:none;stroke:#000000;stroke-width:0.59538394;stroke-linecap:round;stroke-linejoin:round;stroke-miterlimit:10;stroke-opacity:1;stroke-dasharray:none" />
        <path
           d="m 837.91728,138.61626 1.51235,3.32717 2.21811,2.21811 2.21811,1.10906 2.31894,2.21811 2.92387,0 5.34364,1.20988 1.51235,-1.20988 4.43622,-2.21811 -22.48359,-6.65434"
           id="path3722"
           style="fill:#ffffff;fill-opacity:1;fill-rule:evenodd;stroke:none" />
        <path
           d="m 837.91728,141.74178 1.41152,2.31894 2.11729,1.51235 2.21811,0.80658 2.11729,1.51235 2.92388,0 5.04116,0.80659 1.41153,-0.80659 2.21811,-0.80659 2.11729,-0.70576"
           id="path3724"
           style="fill:none;stroke:#000000;stroke-width:0.59538394;stroke-linecap:round;stroke-linejoin:round;stroke-miterlimit:10;stroke-opacity:1;stroke-dasharray:none" />
        <path
           d="m 858.08194,145.47224 c 6.64761,7.39539 4.97394,6.24432 14.51855,6.25105 5.92505,-1.8938 9.26566,-4.15745 10.68727,-10.68727 l -25.20582,4.43622"
           id="path3726"
           style="fill:#ffffff;fill-opacity:1;fill-rule:evenodd;stroke:none" />
        <path
           d="m 859.49346,146.37965 c 6.33507,6.44933 4.93698,5.29322 13.71197,5.34364 5.31003,-1.54596 8.58342,-3.31877 10.08233,-9.17492 m 0,0 0,1.51235"
           id="path3728"
           style="fill:none;stroke:#000000;stroke-width:0.59538394;stroke-linecap:round;stroke-linejoin:round;stroke-miterlimit:10;stroke-opacity:1;stroke-dasharray:none" />
        <path
           d="m 882.78364,143.85907 1.41153,1.00823 7.46092,0 2.31894,-1.00823 c 4.58242,-3.90186 5.60409,-5.42933 6.65433,-11.39303 l -17.84572,11.39303"
           id="path3730"
           style="fill:#ffffff;fill-opacity:1;fill-rule:evenodd;stroke:none" />
        <path
           d="m 883.28776,144.06072 1.51235,0.80658 7.15845,0 2.21811,-0.80658 2.11729,-1.51235 1.41153,-1.61318 1.51235,-1.51235 0.70576,-2.31893 0.70576,-2.21811"
           id="path3732"
           style="fill:none;stroke:#000000;stroke-width:0.59538394;stroke-linecap:round;stroke-linejoin:round;stroke-miterlimit:10;stroke-opacity:1;stroke-dasharray:none" />
        <path
           d="m 899.52031,134.8858 2.41976,-0.80659 3.12552,-0.80659 2.31894,-1.51235 2.41975,-2.31893 0.80659,-2.21811 1.61317,-2.31894 0,-5.34363 -0.80658,-1.61318 -1.61318,-0.70576 -1.61317,-1.51235 -8.6708,19.15643"
           id="path3734"
           style="fill:#ffffff;fill-opacity:1;fill-rule:evenodd;stroke:none" />
        <path
           d="m 900.62936,134.8858 2.21812,-0.80659 2.82305,-0.80659 2.21811,-1.51235 2.11729,-2.31893 0.70576,-2.21811 1.51235,-2.31894 0,-5.34363 -0.80658,-1.61318 -1.41153,-0.70576 -1.41153,-1.51235"
           id="path3736"
           style="fill:none;stroke:#000000;stroke-width:0.59538394;stroke-linecap:round;stroke-linejoin:round;stroke-miterlimit:10;stroke-opacity:1;stroke-dasharray:none" />
        <path
           d="m 908.5944,115.72937 0.70577,-0.80659 0,-6.9568 -0.70577,-1.51235 -1.51234,-1.51235 -1.41153,-1.51235 -1.41153,-0.80659 -2.21811,-0.70576 6.55351,13.81279"
           id="path3738"
           style="fill:#ffffff;fill-opacity:1;fill-rule:evenodd;stroke:none" />
        <path
           d="m 908.5944,115.72937 0.70577,-0.80659 0,-6.9568 -0.70577,-1.51235 -1.51234,-1.51235 -1.41153,-1.51235 -1.41153,-0.80659 -2.21811,-0.70576"
           id="path3740"
           style="fill:none;stroke:#000000;stroke-width:0.59538394;stroke-linecap:round;stroke-linejoin:round;stroke-miterlimit:10;stroke-opacity:1;stroke-dasharray:none" />
        <path
           d="m 902.9483,104.33634 c -3.68677,-9.94118 -0.43018,-4.52361 -7.56175,-9.37657 l -3.83128,0 -1.51235,1.10906 -3.0247,2.01646 -1.51235,1.10906 17.44243,5.14199"
           id="path3742"
           style="fill:#ffffff;fill-opacity:1;fill-rule:evenodd;stroke:none" />
        <path
           d="m 902.04089,101.91658 c -2.45841,-4.72021 -0.65367,-4.71181 -5.74693,-6.15022 l -1.41152,-0.80659 -3.62964,0 -1.41153,0.80659 -1.51235,0.70576 -2.82305,1.61317"
           id="path3744"
           style="fill:none;stroke:#000000;stroke-width:0.59538394;stroke-linecap:round;stroke-linejoin:round;stroke-miterlimit:10;stroke-opacity:1;stroke-dasharray:none" />
        <path
           d="m 885.50587,98.08529 -0.70576,-0.80658 -1.51235,-0.80659 -1.41153,-0.70576 -1.41152,-0.80659 -5.04117,0 -1.51235,0.80659 -0.70576,1.51235 -1.41153,0.80658 -0.70576,1.51235"
           id="path3748"
           style="fill:#ffffff;fill-opacity:1;stroke:#000000;stroke-width:0.59538394;stroke-linecap:round;stroke-linejoin:round;stroke-miterlimit:10;stroke-opacity:1;stroke-dasharray:none" />
        <path
           d="m 871.08814,99.59764 c -4.27323,-5.08166 -14.08333,-3.86825 -16.63584,2.31894 l 16.63584,-2.31894"
           id="path3750"
           style="fill:none;stroke:none" />
        <path
           d="m 871.08814,99.59764 c -4.27323,-5.08166 -14.08333,-3.86825 -16.63584,2.31894"
           id="path3752"
           style="fill:none;stroke:#000000;stroke-width:0.59538394;stroke-linecap:round;stroke-linejoin:round;stroke-miterlimit:10;stroke-opacity:1;stroke-dasharray:none" />
        <path
           d="m 854.4523,101.91658 -1.41153,-0.80659 -2.21811,0 -1.41153,-0.80658 -4.3354,0 -2.82305,0.80658 -2.21811,1.51235 c -4.19929,1.53924 -5.73181,7.66913 -5.74693,11.49386"
           id="path3756"
           style="fill:none;stroke:#000000;stroke-width:0.59538394;stroke-linecap:round;stroke-linejoin:round;stroke-miterlimit:10;stroke-opacity:1;stroke-dasharray:none" />
        <path
           d="m 830.658,128.73558 0.70576,0 0.70577,0.70576 4.3354,0 -5.74693,-0.70576"
           id="path3758"
           style="fill:#e1ffe1;fill-opacity:1;fill-rule:evenodd;stroke:none" />
        <path
           d="m 830.658,128.73558 0.70576,0 0.70577,0.70576 4.3354,0 m 1.51235,11.49385 2.82305,0"
           id="path3760"
           style="fill:none;stroke:#000000;stroke-width:0.59538394;stroke-linecap:round;stroke-linejoin:round;stroke-miterlimit:10;stroke-opacity:1;stroke-dasharray:none" />
        <path
           d="m 857.37617,144.8673 0.70577,0 0.70576,0.70577 0,0.80658 0.70576,0 -2.11729,-1.51235"
           id="path3762"
           style="fill:#e1ffe1;fill-opacity:1;fill-rule:evenodd;stroke:none" />
        <path
           d="m 857.37617,144.8673 0.70577,0 0.70576,0.70577 0,0.80658 0.70576,0 m 23.7943,-3.83128 0,-1.61318"
           id="path3764"
           style="fill:none;stroke:#000000;stroke-width:0.59538394;stroke-linecap:round;stroke-linejoin:round;stroke-miterlimit:10;stroke-opacity:1;stroke-dasharray:none" />
        <path
           d="m 900.62936,134.8858 -0.70576,-1.61318 0,-2.21811 -1.41152,-1.61317 -0.80659,-1.51235 -1.41153,-1.51235 -2.11729,-0.80659 6.45269,9.27575"
           id="path3766"
           style="fill:#e1ffe1;fill-opacity:1;fill-rule:evenodd;stroke:none" />
        <path
           d="m 900.62936,134.8858 -0.70576,-1.61318 0,-2.21811 -1.41152,-1.61317 -0.80659,-1.51235 -1.41153,-1.51235 -2.11729,-0.80659"
           id="path3768"
           style="fill:none;stroke:#000000;stroke-width:0.59538394;stroke-linecap:round;stroke-linejoin:round;stroke-miterlimit:10;stroke-opacity:1;stroke-dasharray:none" />
        <path
           d="m 906.37629,117.94748 0.70577,0 0.80658,-0.70576 0.70576,-0.80659 0,-0.70576 -2.21811,2.21811"
           id="path3770"
           style="fill:#e1ffe1;fill-opacity:1;fill-rule:evenodd;stroke:none" />
        <path
           d="m 906.37629,117.94748 0.70577,0 0.80658,-0.70576 0.70576,-0.80659 0,-0.70576 m -6.55351,-11.59468 0,-2.21811"
           id="path3772"
           style="fill:none;stroke:#000000;stroke-width:0.59538394;stroke-linecap:round;stroke-linejoin:round;stroke-miterlimit:10;stroke-opacity:1;stroke-dasharray:none" />
        <path
           d="m 885.50587,98.08529 0,0.70577 -0.70576,0 -0.70577,0.80658 0,0.70577 1.41153,-2.21812"
           id="path3774"
           style="fill:#e1ffe1;fill-opacity:1;fill-rule:evenodd;stroke:none" />
        <path
           d="m 885.50587,98.08529 0,0.70577 -0.70576,0 -0.70577,0.80658 0,0.70577"
           id="path3776"
           style="fill:none;stroke:#000000;stroke-width:0.59538394;stroke-linecap:round;stroke-linejoin:round;stroke-miterlimit:10;stroke-opacity:1;stroke-dasharray:none" />
        <path
           d="m 871.08814,99.59764 -0.70576,0.70577 0,0.80658 0.70576,-1.51235"
           id="path3778"
           style="fill:#e1ffe1;fill-opacity:1;fill-rule:evenodd;stroke:none" />
        <path
           d="m 856.67041,104.13469 -2.21811,-2.21811 2.21811,2.21811"
           id="path3782"
           style="fill:#e1ffe1;fill-opacity:1;fill-rule:evenodd;stroke:none" />
        <path
           d="m 856.67041,104.13469 -2.21811,-2.21811 m -20.16466,12.19962 0,1.61317"
           id="path3784"
           style="fill:none;stroke:#000000;stroke-width:0.59538394;stroke-linecap:round;stroke-linejoin:round;stroke-miterlimit:10;stroke-opacity:1;stroke-dasharray:none" />
        <text
           x="848.50372"
           y="126.61829"
           id="text3786"
           style="font-size:20.16465759px">
          <tspan
             x="848.50372 857.69116 863.73547 869.87878 876.02203 878.43976 884.58301"
             y="126.61829"
             id="tspan3788"
             style="font-size:10.98973846px;font-variant:normal;font-weight:normal;writing-mode:lr-tb;fill:#000000;fill-opacity:1;fill-rule:nonzero;stroke:none;font-family:Arial;-inkscape-font-specification:ArialMT">Meaning</tspan>
        </text>
      </g>
    </g>
  </g>
</svg>
