<?xml version="1.0" encoding="UTF-8" standalone="no"?>
<!-- Created with Inkscape (http://www.inkscape.org/) -->

<svg
   xmlns:osb="http://www.openswatchbook.org/uri/2009/osb"
   xmlns:dc="http://purl.org/dc/elements/1.1/"
   xmlns:cc="http://creativecommons.org/ns#"
   xmlns:rdf="http://www.w3.org/1999/02/22-rdf-syntax-ns#"
   xmlns:svg="http://www.w3.org/2000/svg"
   xmlns="http://www.w3.org/2000/svg"
   xmlns:sodipodi="http://sodipodi.sourceforge.net/DTD/sodipodi-0.dtd"
   xmlns:inkscape="http://www.inkscape.org/namespaces/inkscape"
   width="210mm"
   height="297mm"
   id="svg2"
   version="1.1"
   inkscape:version="0.48.4 r9939"
   sodipodi:docname="unidad.svg">
  <defs
     id="defs4">
    <linearGradient
       id="linearGradient5223"
       osb:paint="solid">
      <stop
         style="stop-color:#000000;stop-opacity:1;"
         offset="0"
         id="stop5225" />
    </linearGradient>
    <linearGradient
       inkscape:collect="always"
       id="linearGradient3763"
       osb:paint="gradient">
      <stop
         style="stop-color:#000000;stop-opacity:1;"
         offset="0"
         id="stop3765" />
      <stop
         style="stop-color:#000000;stop-opacity:0;"
         offset="1"
         id="stop3767" />
    </linearGradient>
  </defs>
  <sodipodi:namedview
     id="base"
     pagecolor="#ffffff"
     bordercolor="#666666"
     borderopacity="1.0"
     inkscape:pageopacity="0.0"
     inkscape:pageshadow="2"
     inkscape:zoom="2.8"
     inkscape:cx="699.55513"
     inkscape:cy="961.05176"
     inkscape:document-units="px"
     inkscape:current-layer="layer1"
     showgrid="false"
     inkscape:window-width="1400"
     inkscape:window-height="988"
     inkscape:window-x="-8"
     inkscape:window-y="-8"
     inkscape:window-maximized="1" />
  <metadata
     id="metadata7">
    <rdf:RDF>
      <cc:Work
         rdf:about="">
        <dc:format>image/svg+xml</dc:format>
        <dc:type
           rdf:resource="http://purl.org/dc/dcmitype/StillImage" />
        <dc:title></dc:title>
      </cc:Work>
    </rdf:RDF>
  </metadata>
  <g
     inkscape:label="Capa 1"
     inkscape:groupmode="layer"
     id="layer1">
    <rect
       style="fill:#f3fafc;fill-opacity:1;fill-rule:evenodd;stroke:#009ccf;stroke-width:2.02554846;stroke-linecap:square;stroke-linejoin:miter;stroke-miterlimit:4.9000001;stroke-opacity:1;stroke-dasharray:none"
       id="rect2985"
       width="818.6347"
       height="297.27353"
       x="0.86580771"
       y="1.6388854"
       ry="11.838863" />
    <path
       style="fill:#00a6d0;fill-opacity:1;fill-rule:evenodd;stroke:#009ccf;stroke-width:0.16444978;stroke-linecap:square;stroke-linejoin:miter;stroke-miterlimit:4.9000001;stroke-opacity:1;stroke-dasharray:none"
       d="m 798.12959,17.374269 c 0,-1.76563 0.013,-3.21023 0.0289,-3.21023 0.0688,0 0.86157,0.4444 2.14606,1.20293 0.75949,0.4485 1.58285,0.92253 1.82968,1.05339 0.24684,0.13087 0.54911,0.30278 0.67171,0.38203 l 0.22292,0.1441 0.0188,-1.42148 0.0187,-1.42148 0.86306,0.51101 c 0.47468,0.28105 1.18795,0.69236 1.58504,0.91402 0.39709,0.22166 1.10379,0.62913 1.57043,0.90549 0.46664,0.27636 0.86413,0.50247 0.88331,0.50247 0.0192,0 0.0349,-0.62381 0.0349,-1.38624 0,-0.76243 0.0242,-1.38624 0.0537,-1.38624 0.0295,0 0.11497,0.0452 0.18987,0.10047 0.0749,0.0552 0.36922,0.225 0.65403,0.3772 0.28481,0.1522 1.13924,0.6442 1.89873,1.09333 0.75949,0.44913 1.53937,0.90127 1.73306,1.00474 l 0.35217,0.18814 0.0445,-0.8165 c 0.0245,-0.44907 0.0447,-1.31184 0.0448,-1.91726 1.3e-4,-0.60541 0.0208,-2.09105 0.046,-3.30143 l 0.0457,-2.2006805 0.56765,0 0.56764,0 0.0445,2.9731105 c 0.0245,1.63522 0.0747,3.88848 0.11167,5.00726 0.0369,1.11878 0.0671,2.45668 0.0671,2.97312 l 0,0.93897 -8.14727,0 -8.14727,0 0,-3.21024 z"
       id="path5263"
       inkscape:connector-curvature="0" />
    <path
       style="fill:#00a2d0;fill-opacity:1;fill-rule:evenodd;stroke:#009ccf;stroke-width:0.16444978;stroke-linecap:square;stroke-linejoin:miter;stroke-miterlimit:4.9000001;stroke-opacity:1;stroke-dasharray:none"
       d="m 811.72985,7.8612814 c -0.53933,-0.5081 -1.37943,-0.85497 -2.0707,-0.85497 -0.37459,0 -1.04587,0.2009 -1.52458,0.45627 l -0.43144,0.23015 -0.27244,-0.28111 -0.27244,-0.28111 0.27391,-0.20966 c 0.3547,-0.27153 0.92067,-0.53425 1.37047,-0.63618 0.45712,-0.10359 1.34693,-0.10386 1.80282,-5.5e-4 0.60786,0.13775 1.43685,0.62604 1.88947,1.11292 l 0.40763,0.43848 -0.23749,0.0869 c -0.57329,0.20973 -0.65325,0.2045 -0.93521,-0.0611 z"
       id="path5265"
       inkscape:connector-curvature="0" />
    <path
       style="fill:#00a2d0;fill-opacity:1;fill-rule:evenodd;stroke:#00a6cf;stroke-width:0.16444978;stroke-linecap:square;stroke-linejoin:miter;stroke-miterlimit:4.9000001;stroke-opacity:1;stroke-dasharray:none"
       d="m 801.92457,7.9430128 c -0.66433,-0.20239 -1.11537,-0.4769 -1.64485,-1.00107 l -0.29849,-0.29548 0.3279,-0.24635 c 0.18034,-0.1355 0.34769,-0.24635 0.37187,-0.24635 0.0242,0 0.13427,0.0996 0.24463,0.22131 0.11036,0.12172 0.32907,0.30084 0.48603,0.39804 0.35611,0.22053 1.20982,0.47505 1.5934,0.47505 0.32447,0 1.06984,-0.18466 1.34265,-0.33263 0.16945,-0.0919 0.19533,-0.0798 0.47683,0.22328 l 0.29764,0.32048 -0.4423,0.21848 c -0.24327,0.12016 -0.56659,0.25305 -0.71849,0.2953 -0.37691,0.10486 -1.65594,0.086 -2.03682,-0.03 z"
       id="path5267"
       inkscape:connector-curvature="0" />
  </g>
</svg>
