<?xml version="1.0" encoding="UTF-8" standalone="no"?>
<svg
   xmlns:dc="http://purl.org/dc/elements/1.1/"
   xmlns:cc="http://creativecommons.org/ns#"
   xmlns:rdf="http://www.w3.org/1999/02/22-rdf-syntax-ns#"
   xmlns:svg="http://www.w3.org/2000/svg"
   xmlns="http://www.w3.org/2000/svg"
   xmlns:sodipodi="http://sodipodi.sourceforge.net/DTD/sodipodi-0.dtd"
   xmlns:inkscape="http://www.inkscape.org/namespaces/inkscape"
   height="64"
   version="1.1"
   viewBox="0 0 64 64"
   width="64"
   id="svg2"
   inkscape:version="0.48.1 "
   sodipodi:docname="iconiconrepresentation.svg">
  <metadata
     id="metadata13">
    <rdf:RDF>
      <cc:Work
         rdf:about="">
        <dc:format>image/svg+xml</dc:format>
        <dc:type
           rdf:resource="http://purl.org/dc/dcmitype/StillImage" />
        <dc:title />
      </cc:Work>
    </rdf:RDF>
  </metadata>
  <sodipodi:namedview
     pagecolor="#ffffff"
     bordercolor="#666666"
     borderopacity="1"
     objecttolerance="10"
     gridtolerance="10"
     guidetolerance="10"
     inkscape:pageopacity="0"
     inkscape:pageshadow="2"
     inkscape:window-width="1920"
     inkscape:window-height="1018"
     id="namedview11"
     showgrid="false"
     inkscape:zoom="7.2770114"
     inkscape:cx="-8.2509893"
     inkscape:cy="10.689052"
     inkscape:window-x="-8"
     inkscape:window-y="-8"
     inkscape:window-maximized="1"
     inkscape:current-layer="Group" />
  <defs
     id="defs6" />
  <g
     id="Icons with numbers"
     style="fill:none;stroke:none"
     transform="translate(0,48)">
    <g
       id="Group"
       transform="translate(-240,-480)"
       style="fill:#000000">
      <path
         d="m 255.74097,432.98034 32.46071,0 c 8.81507,0 15.64391,6.74326 15.55657,15.55657 l -0.40214,40.58439 c -0.0532,5.36878 -4.18767,3.62743 -9.22792,1.25869 -1.80949,-0.85039 -3.73573,-2.97873 -5.63177,-3.20948 -1.49369,-0.18179 -2.86302,0.005 -4.23594,0.65337 l -13.71994,6.47823 c -7.97119,3.7638 -30.48178,3.31115 -30.517,-5.50252 l -0.16086,-40.26268 c -0.0359,-8.81499 7.06454,-15.55657 15.87829,-15.55657 z m 0.10838,3.59133 c -6.62337,0 -12.06304,5.36111 -11.99319,11.99379 l 0.40214,38.19474 c 0.0699,6.62361 19.37861,6.84762 25.34557,3.95054 l 13.98463,-6.78983 c 1.49703,-0.72684 3.71186,-1.49163 5.51607,-1.01078 1.80385,0.48076 3.91217,2.48023 5.73161,3.45943 3.60423,1.93975 5.65224,2.00152 5.59225,-1.29844 l -0.66365,-36.50566 c -0.1204,-6.62286 -5.36076,-11.99379 -11.9938,-11.99379 z"
         id="Rectangle 153 copy"
         inkscape:connector-curvature="0"
         sodipodi:nodetypes="ssssssssssssssssssssss"
         style="fill:#000000;fill-opacity:1;stroke:none" />
    </g>
  </g>
</svg>
