<?xml version="1.0" encoding="UTF-8" standalone="no"?>
<!-- Created with Inkscape (http://www.inkscape.org/) -->

<svg
   xmlns:dc="http://purl.org/dc/elements/1.1/"
   xmlns:cc="http://creativecommons.org/ns#"
   xmlns:rdf="http://www.w3.org/1999/02/22-rdf-syntax-ns#"
   xmlns:svg="http://www.w3.org/2000/svg"
   xmlns="http://www.w3.org/2000/svg"
   version="1.1"
   width="16"
   height="16"
   id="svg3934">
  <defs
     id="defs3936" />
  <metadata
     id="metadata3939">
    <rdf:RDF>
      <cc:Work
         rdf:about="">
        <dc:format>image/svg+xml</dc:format>
        <dc:type
           rdf:resource="http://purl.org/dc/dcmitype/StillImage" />
        <dc:title></dc:title>
      </cc:Work>
    </rdf:RDF>
  </metadata>
  <g
     id="layer1">
    <g
       transform="matrix(1.0742381,0,0,1.1397723,-0.66240585,-1.2894408)"
       id="g4470">
      <path
         d="m 3.6039604,13.297029 a 1.4415842,1.4415842 0 1 1 -2.88316846,0 1.4415842,1.4415842 0 1 1 2.88316846,0 z"
         id="path3942"
         style="fill:#000000;fill-opacity:1;fill-rule:nonzero;stroke:#000000;stroke-width:0.5422405;stroke-miterlimit:4;stroke-opacity:1;stroke-dasharray:none;stroke-dashoffset:0" />
      <path
         d="m 3.6039604,13.297029 a 1.4415842,1.4415842 0 1 1 -2.88316846,0 1.4415842,1.4415842 0 1 1 2.88316846,0 z"
         transform="translate(1.7002081,-10.399613)"
         id="path4452"
         style="fill:#000000;fill-opacity:1;fill-rule:nonzero;stroke:#000000;stroke-width:0.5422405;stroke-miterlimit:4;stroke-opacity:1;stroke-dasharray:none;stroke-dashoffset:0" />
      <path
         d="m 3.6039604,13.297029 a 1.4415842,1.4415842 0 1 1 -2.88316846,0 1.4415842,1.4415842 0 1 1 2.88316846,0 z"
         transform="translate(11.700208,-10.399613)"
         id="path4454"
         style="fill:#000000;fill-opacity:1;fill-rule:nonzero;stroke:#000000;stroke-width:0.5422405;stroke-miterlimit:4;stroke-opacity:1;stroke-dasharray:none;stroke-dashoffset:0" />
      <path
         d="m 3.6039604,13.297029 a 1.4415842,1.4415842 0 1 1 -2.88316846,0 1.4415842,1.4415842 0 1 1 2.88316846,0 z"
         transform="translate(10.400208,0)"
         id="path4456"
         style="fill:#000000;fill-opacity:1;fill-rule:nonzero;stroke:#000000;stroke-width:0.5422405;stroke-miterlimit:4;stroke-opacity:1;stroke-dasharray:none;stroke-dashoffset:0" />
      <path
         d="m 3.6039604,13.297029 7.5170396,0"
         id="path4458"
         style="fill:none;stroke:#000000;stroke-width:0.90373409px;stroke-linecap:butt;stroke-linejoin:miter;stroke-opacity:1" />
      <path
         d="M 12.727286,11.86475 13.785149,2.6653464"
         id="path4462"
         style="fill:none;stroke:#000000;stroke-width:0.90373409px;stroke-linecap:butt;stroke-linejoin:miter;stroke-opacity:1" />
      <path
         d="m 12.421,2.8974155 -7.1168315,0"
         id="path4464"
         style="fill:none;stroke:#000000;stroke-width:0.90373409px;stroke-linecap:butt;stroke-linejoin:miter;stroke-opacity:1;display:inline" />
      <path
         d="M 3.6039604,2.8455444 2.3593742,11.868793"
         id="path4466"
         style="fill:none;stroke:#000000;stroke-width:0.90373409px;stroke-linecap:butt;stroke-linejoin:miter;stroke-opacity:1" />
    </g>
  </g>
</svg>
