<?xml version="1.0" encoding="UTF-8" standalone="no"?>
<!-- Created with Inkscape (http://www.inkscape.org/) -->

<svg
   xmlns:dc="http://purl.org/dc/elements/1.1/"
   xmlns:cc="http://creativecommons.org/ns#"
   xmlns:rdf="http://www.w3.org/1999/02/22-rdf-syntax-ns#"
   xmlns:svg="http://www.w3.org/2000/svg"
   xmlns="http://www.w3.org/2000/svg"
   xmlns:sodipodi="http://sodipodi.sourceforge.net/DTD/sodipodi-0.dtd"
   xmlns:inkscape="http://www.inkscape.org/namespaces/inkscape"
   version="1.1"
   width="56"
   height="87"
   id="svg2"
   inkscape:version="0.48.1 "
   sodipodi:docname="iconiconlocation.svg">
  <sodipodi:namedview
     pagecolor="#ffffff"
     bordercolor="#666666"
     borderopacity="1"
     objecttolerance="10"
     gridtolerance="10"
     guidetolerance="10"
     inkscape:pageopacity="0"
     inkscape:pageshadow="2"
     inkscape:window-width="1920"
     inkscape:window-height="1018"
     id="namedview10"
     showgrid="false"
     inkscape:zoom="9.9300241"
     inkscape:cx="30"
     inkscape:cy="44.028188"
     inkscape:window-x="-8"
     inkscape:window-y="-8"
     inkscape:window-maximized="0"
     inkscape:current-layer="g4" />
  <metadata
     id="metadata15">
    <rdf:RDF>
      <cc:Work
         rdf:about="">
        <dc:format>image/svg+xml</dc:format>
        <dc:type
           rdf:resource="http://purl.org/dc/dcmitype/StillImage" />
        <dc:title />
      </cc:Work>
    </rdf:RDF>
  </metadata>
  <defs
     id="defs13" />
  <g
     transform="matrix(0.95717879,0,0,1.182351,-0.99850651,-2356.4085)"
     id="g4"
     style="fill:#f1f1b5;fill-opacity:1">
    <g
       transform="matrix(0.05198329,0,0,0.04005044,-7.984821,1992.3372)"
       id="svg_1"
       style="stroke-width:110.40165710000001000;stroke-miterlimit:4;stroke-dasharray:none;fill:#f1f1b5;fill-opacity:1">
      <path
         d="M 739.08577,1838.814 C 700.08736,1639.8006 631.32759,1474.1864 548.04418,1320.6917 486.26903,1206.8353 414.70552,1101.7436 348.49088,991.33519 326.38713,954.47755 307.31147,915.53998 286.07188,877.28837 243.60276,800.80303 209.16955,712.12275 211.35759,597.08984 213.49533,484.69652 244.76469,394.53858 289.85541,320.82346 364.01643,199.58073 488.23877,100.17494 654.91513,74.051303 c 136.2782,-21.359061 264.04872,14.726705 354.65667,69.803867 74.0414,45.00837 131.379,105.12937 174.9628,175.98424 45.4911,73.95353 76.8168,161.32237 79.4445,275.28333 1.345,58.38604 -7.8518,112.45504 -20.808,157.30444 -13.1121,45.39642 -34.1999,83.34362 -52.9617,123.87713 -36.6243,79.12283 -82.5408,151.61959 -128.6216,224.15939 -137.25497,216.0647 -266.08178,436.4152 -322.50203,738.3503 z"
         id="svg_2"
         style="fill:#f1f1b5;fill-opacity:1;fill-rule:evenodd;stroke:#000000;stroke-width:63.86404036999999800;stroke-miterlimit:4;stroke-dasharray:none"
         inkscape:connector-curvature="0" />
      <circle
         cx="734.54602"
         cy="652.047"
         r="183.33301"
         id="svg_4"
         style="fill:#f1f1b5;fill-opacity:1;fill-rule:evenodd;stroke-width:110.40165710000001000;stroke-miterlimit:4;stroke-dasharray:none"
         d="m 917.87903,652.047 c 0,101.25202 -82.08099,183.333 -183.33301,183.333 -101.25202,0 -183.33301,-82.08098 -183.33301,-183.333 0,-101.25203 82.08099,-183.33301 183.33301,-183.33301 101.25202,0 183.33301,82.08098 183.33301,183.33301 z"
         sodipodi:cx="734.54602"
         sodipodi:cy="652.047"
         sodipodi:rx="183.33301"
         sodipodi:ry="183.33301" />
    </g>
    <circle
       cx="733.5"
       cy="637"
       r="136.20068"
       transform="matrix(0.0560308,0,0,0.03660682,-10.05805,1994.3923)"
       id="svg_5"
       style="fill:#020101;stroke:#000000;stroke-width:103.77812958000001000;stroke-miterlimit:4;stroke-dasharray:none;fill-opacity:0.95192307"
       d="m 869.70068,637 c 0,75.22156 -60.97912,136.20068 -136.20068,136.20068 -75.22156,0 -136.20068,-60.97912 -136.20068,-136.20068 0,-75.22156 60.97912,-136.20068 136.20068,-136.20068 75.22156,0 136.20068,60.97912 136.20068,136.20068 z"
       sodipodi:cx="733.5"
       sodipodi:cy="637"
       sodipodi:rx="136.20068"
       sodipodi:ry="136.20068" />
  </g>
</svg>
