<?xml version="1.0" encoding="UTF-8" standalone="no"?>
<!-- Created with Inkscape (http://www.inkscape.org/) -->

<svg
   xmlns:dc="http://purl.org/dc/elements/1.1/"
   xmlns:cc="http://creativecommons.org/ns#"
   xmlns:rdf="http://www.w3.org/1999/02/22-rdf-syntax-ns#"
   xmlns:svg="http://www.w3.org/2000/svg"
   xmlns="http://www.w3.org/2000/svg"
   version="1.1"
   width="16"
   height="16"
   id="svg4089">
  <defs
     id="defs4091" />
  <metadata
     id="metadata4094">
    <rdf:RDF>
      <cc:Work
         rdf:about="">
        <dc:format>image/svg+xml</dc:format>
        <dc:type
           rdf:resource="http://purl.org/dc/dcmitype/StillImage" />
        <dc:title></dc:title>
      </cc:Work>
    </rdf:RDF>
  </metadata>
  <g
     id="layer1">
    <g
       transform="matrix(0.62823394,0,0,2.1188339,-326.99881,-613.01392)"
       id="g19174">
      <path
         d="m 524.71532,296.63149 17.0391,0 c 1.9156,0 3.5288,-1.61317 3.5288,-3.52881 0,-1.91564 -1.6132,-3.52882 -3.5288,-3.52882 l -17.0391,0 c -2.0165,0 -3.5288,1.61318 -3.5288,3.52882 0,1.91564 1.5123,3.52881 3.5288,3.52881 z"
         id="path19170"
         style="fill:none;stroke:#000000;stroke-width:0.46479145;stroke-linecap:butt;stroke-linejoin:miter;stroke-miterlimit:2;stroke-opacity:1;stroke-dasharray:none" />
      <path
         d="m 545.28322,293.10268 c 0,-1.91564 -1.6132,-3.52882 -3.5288,-3.52882 -2.0165,0 -3.6296,1.61318 -3.6296,3.52882 0,1.91564 1.6131,3.52881 3.6296,3.52881 1.9156,0 3.5288,-1.61317 3.5288,-3.52881 z"
         id="path19172"
         style="fill:none;stroke:#000000;stroke-width:0.46479145;stroke-linecap:butt;stroke-linejoin:miter;stroke-miterlimit:2;stroke-opacity:1;stroke-dasharray:none" />
    </g>
  </g>
</svg>
